<svg xmlns="http://www.w3.org/2000/svg" width="512" height="512" viewBox="0 0 64 64" xml:space="preserve"><path fill="#d770ad" d="M32 32c-6.69-3.87-15.26-1.57-19.12 5.12-3.16 5.479-2.39 10.77-.76 14.76-4.21-1.71-6.96-4.38-6.96-4.38s-.931-3.721-.32-8.221c.58-4.27 2.561-9.25 8.04-12.409C19.57 23.01 28.14 25.3 32 32" data-original="#d770ad"/><path fill="#ec87c0" d="M32 32c-7.73 0-14 6.27-14 14 0 6.319 3.31 10.51 6.71 13.16-4.5.619-8.21-.32-8.21-.32s-2.67-2.75-4.38-6.96c-1.63-3.99-2.4-9.28.76-14.76C16.74 30.43 25.31 28.13 32 32M24.72 4.84c4.271.58 9.24 2.56 12.41 8.04C40.99 19.569 38.7 28.13 32 32c3.87-6.7 1.57-15.261-5.12-19.12-5.479-3.17-10.77-2.391-14.76-.76v-.011c1.71-4.199 4.38-6.96 4.38-6.96s3.72-.929 8.22-.309" data-original="#ec87c0"/><path fill="#ec87c0" d="M32 32c7.74 0 14-6.271 14-14 0-6.32-3.31-10.511-6.71-13.16 4.5-.62 8.21.31 8.21.31s2.67 2.761 4.39 6.96c1.63 3.99 2.4 9.28-.76 14.761C47.26 33.569 38.7 35.859 32 32" data-original="#ec87c0"/><path fill="#d770ad" d="M18 46c0-7.73 6.27-14 14-14-6.7 3.87-8.99 12.43-5.12 19.12 3.17 5.479 8.13 7.449 12.4 8.029v.011C35.69 61.95 32 63 32 63s-3.69-1.061-7.29-3.84C21.31 56.51 18 52.319 18 46" data-original="#d770ad"/><path fill="#ec87c0" d="M32 32c-3.86-6.7-12.43-8.99-19.12-5.13-5.48 3.159-7.46 8.14-8.04 12.409C2.06 35.689 1 32 1 32s1.05-3.69 3.84-7.28C7.479 21.319 11.67 18 18 18c7.729 0 14 6.26 14 14" data-original="#ec87c0"/><g fill="#d770ad"><path d="M46 18c0 7.729-6.26 14-14 14 6.7-3.87 8.99-12.431 5.13-19.12-3.17-5.48-8.14-7.46-12.41-8.04C28.31 2.05 32 1 32 1s3.69 1.05 7.28 3.84h.01C42.69 7.489 46 11.68 46 18" data-original="#d770ad"/><path d="M32 32c0-7.74-6.271-14-14-14-6.33 0-10.521 3.319-13.16 6.72-.62-4.5.32-8.22.32-8.22s2.75-2.67 6.96-4.38c3.99-1.631 9.28-2.41 14.76.76C33.57 16.739 35.87 25.3 32 32m14 14c6.33 0 10.53-3.32 13.16-6.73l.01.01c.61 4.5-.32 8.221-.32 8.221s-2.75 2.67-6.96 4.38c-3.989 1.63-9.279 2.399-14.76-.76C30.43 47.26 28.14 38.7 32 32c0 7.729 6.27 14 14 14" data-original="#d770ad"/></g><path fill="#ec87c0" d="M32 32c3.87 6.7 12.43 8.989 19.13 5.12 5.48-3.16 7.46-8.131 8.04-12.4C61.95 28.31 63 32 63 32s-1.05 3.68-3.84 7.27C56.53 42.68 52.33 46 46 46c-7.73 0-14-6.271-14-14" data-original="#ec87c0"/><path fill="#ec87c0" d="M32 32c-3.86 6.7-1.57 15.26 5.13 19.12 5.48 3.159 10.771 2.39 14.76.76-1.72 4.21-4.39 6.97-4.39 6.97s-3.72.93-8.22.3c-4.271-.58-9.23-2.55-12.4-8.029C23.01 44.43 25.3 35.87 32 32" data-original="#ec87c0"/><path fill="#d770ad" d="M32 32c6.7 3.859 15.26 1.569 19.13-5.13 3.16-5.48 2.39-10.771.76-14.761 4.2 1.721 6.96 4.391 6.96 4.391s.931 3.72.32 8.22c-.58 4.27-2.56 9.24-8.04 12.4C44.43 40.989 35.87 38.7 32 32" data-original="#d770ad"/></svg>